<svg width="72" height="16" viewBox="0 0 72 16" fill="none" xmlns="http://www.w3.org/2000/svg" class="ok-ui-card__header-logo">
  <title>OneKey</title>
  <path d="M25.3993 13C24.4813 13 23.6376 12.7867 22.868 12.3602C22.1077 11.9337 21.5003 11.3403 21.046 10.58C20.6009 9.81039 20.3784 8.94808 20.3784 7.99305C20.3784 7.03802 20.6009 6.18034 21.046 5.42003C21.5003 4.65971 22.1077 4.0663 22.868 3.63978C23.6376 3.21326 24.4813 3 25.3993 3C26.3172 3 27.1564 3.21326 27.9167 3.63978C28.6863 4.0663 29.2889 4.65971 29.7247 5.42003C30.1698 6.18034 30.3923 7.03802 30.3923 7.99305C30.3923 8.94808 30.1698 9.81039 29.7247 10.58C29.2797 11.3403 28.677 11.9337 27.9167 12.3602C27.1564 12.7867 26.3172 13 25.3993 13ZM25.3993 10.8303C26.1781 10.8303 26.7994 10.5707 27.263 10.0515C27.7359 9.53222 27.9723 8.84608 27.9723 7.99305C27.9723 7.13074 27.7359 6.4446 27.263 5.93463C26.7994 5.41539 26.1781 5.15577 25.3993 5.15577C24.6111 5.15577 23.9806 5.41075 23.5078 5.92072C23.0442 6.43069 22.8124 7.12147 22.8124 7.99305C22.8124 8.85536 23.0442 9.54613 23.5078 10.0654C23.9806 10.5753 24.6111 10.8303 25.3993 10.8303Z" fill="#011630"/>
  <path d="M40.4498 12.9026H38.0715L34.0938 6.88039V12.9026H31.7155V3.13908H34.0938L38.0715 9.18915V3.13908H40.4498V12.9026Z" fill="#011630"/>
  <path d="M44.5521 5.04451V7.01947H47.7371V8.85536H44.5521V10.9972H48.1543V12.9026H42.1738V3.13908H48.1543V5.04451H44.5521Z" fill="#011630"/>
  <path d="M55.1364 12.9026L50.9223 8.41029V12.9026H49.9487V3.18081H50.9223V7.72879L55.1364 3.18081H56.3743L51.8263 8.03477L56.416 12.9026H55.1364Z" fill="#011630"/>
  <path d="M58.8271 3.97357V7.60362H62.5128V8.41029H58.8271V12.096H62.93V12.9026H57.8535V3.1669H62.93V3.97357H58.8271Z" fill="#011630"/>
  <path d="M71.274 3.18081L68.1585 9.11961V12.9026H67.185V9.11961L64.0417 3.18081H65.1405L67.6718 8.22949L70.1891 3.18081H71.274Z" fill="#011630"/>
  <path fill-rule="evenodd" clip-rule="evenodd" d="M3.49283 13.7381C3.32679 13.9331 3.03303 13.9575 2.84795 13.7805C1.66063 12.6445 0.848987 11.1674 0.529604 9.54789C0.180236 7.77637 0.440442 5.93876 1.26791 4.33387C2.09537 2.72899 3.44143 1.45123 5.08718 0.708384C6.73294 -0.0344669 8.5816 -0.198718 10.3325 0.242339C12.0835 0.683396 13.6337 1.70382 14.7312 3.13767C15.8286 4.57153 16.4088 6.33448 16.3772 8.13985C16.3456 9.94522 15.7042 11.6868 14.5573 13.0814C13.7748 14.033 12.7883 14.7848 11.6798 15.2871C11.2733 15.4712 10.8299 15.1762 10.7942 14.7314L10.7724 14.4607C10.7482 14.1583 10.9261 13.8789 11.1985 13.7452C12.0126 13.3456 12.738 12.7748 13.3216 12.0651C14.2391 10.9494 14.7522 9.55617 14.7774 8.11188C14.8027 6.66758 14.3386 5.25722 13.4606 4.11014C12.5827 2.96305 11.3425 2.14672 9.94172 1.79387C8.54097 1.44103 7.06204 1.57243 5.74543 2.16671C4.42882 2.76099 3.35198 3.78319 2.69001 5.0671C2.02804 6.351 1.81987 7.82109 2.09937 9.23831C2.34886 10.5034 2.97385 11.66 3.88749 12.5598C4.06997 12.7395 4.09482 13.0311 3.92878 13.2261L3.49283 13.7381ZM12.8919 8.00024C12.8919 10.2307 11.2769 12.084 9.15246 12.4545L9.15246 15.5945L9.08201 15.5945C8.9905 15.8255 8.77551 15.9946 8.50887 15.9993C7.43381 16.018 6.36585 15.8197 5.36913 15.4165C5.0159 15.2736 4.88157 14.8551 5.05438 14.5155L5.15421 14.3194C5.32702 13.9798 5.74146 13.8484 6.09768 13.9836C6.57387 14.1645 7.06912 14.2875 7.57275 14.3507L7.57275 12.4519C5.45574 12.0752 3.84838 10.2255 3.84838 8.00024C3.84838 5.50295 5.87283 3.4785 8.37012 3.4785C10.8674 3.4785 12.8919 5.50295 12.8919 8.00024ZM11.2984 8.00024C11.2984 6.38301 9.98735 5.07198 8.37012 5.07198C6.75289 5.07198 5.44186 6.38301 5.44186 8.00024C5.44186 9.61747 6.75289 10.9285 8.37012 10.9285C9.98735 10.9285 11.2984 9.61747 11.2984 8.00024Z" fill="url(#paint0_linear_402_35552)"/>
  <defs>
    <linearGradient id="paint0_linear_402_35552" x1="1.45534" y1="1.31151" x2="12.1835" y2="16.7662" gradientUnits="userSpaceOnUse">
      <stop stop-color="#09F7FF"/>
      <stop offset="1" stop-color="#0F9AFD"/>
    </linearGradient>
  </defs>
</svg>