<svg width="0.929em" height="1em" viewBox="0 0 13 14" fill="none" xmlns="http://www.w3.org/2000/svg">
  <path d="M12.3275 0.334717C12.2399 0.334667 12.1532 0.351877 12.0723 0.385362C11.9914 0.418848 11.9179 0.467952 11.856 0.529868C11.794 0.591783 11.7449 0.665296 11.7115 0.746202C11.678 0.827108 11.6608 0.913822 11.6608 1.00138V1.42586C11.0985 2.123 10.3879 2.68599 9.58064 3.07386C8.77336 3.46173 7.88976 3.66472 6.99414 3.66805H2.99414C2.46389 3.66863 1.95551 3.87953 1.58057 4.25448C1.20562 4.62942 0.994719 5.13779 0.994141 5.66805V7.00138C0.994719 7.53164 1.20562 8.04001 1.58057 8.41496C1.95551 8.7899 2.46389 9.0008 2.99414 9.00138H3.31667L1.71485 12.739C1.67132 12.8404 1.65364 12.951 1.66342 13.0608C1.67319 13.1707 1.7101 13.2765 1.77083 13.3686C1.83156 13.4607 1.91422 13.5363 2.01137 13.5885C2.10853 13.6408 2.21715 13.6681 2.32747 13.668H4.99414C5.12464 13.6681 5.25229 13.6298 5.36121 13.558C5.47013 13.4861 5.55553 13.3838 5.60677 13.2638L7.42261 9.02672C8.24303 9.08695 9.0424 9.31474 9.77135 9.696C10.5003 10.0773 11.1434 10.6039 11.6608 11.2434V11.668C11.6608 11.8449 11.731 12.0144 11.8561 12.1395C11.9811 12.2645 12.1507 12.3347 12.3275 12.3347C12.5043 12.3347 12.6739 12.2645 12.7989 12.1395C12.9239 12.0144 12.9941 11.8449 12.9941 11.668V1.00138C12.9942 0.913821 12.977 0.827108 12.9435 0.746201C12.91 0.665294 12.8609 0.591782 12.799 0.529866C12.7371 0.46795 12.6636 0.418845 12.5827 0.38536C12.5017 0.351875 12.415 0.334666 12.3275 0.334717ZM2.99414 7.66805C2.81737 7.66793 2.64787 7.59766 2.52287 7.47266C2.39787 7.34766 2.32759 7.17816 2.32747 7.00138V5.66805C2.32759 5.49128 2.39787 5.32178 2.52287 5.19678C2.64787 5.07178 2.81737 5.0015 2.99414 5.00138H3.66081V7.66805H2.99414ZM4.55469 12.3347H3.33854L4.76693 9.00138H5.98307L4.55469 12.3347ZM11.6608 9.34925C10.3463 8.26633 8.69725 7.67223 6.99414 7.66802H4.99414V5.00135H6.99414C8.69729 4.997 10.3463 4.40279 11.6608 3.31979V9.34925Z" fill="currentColor"/>
</svg>