<svg width="1.5em" height="1.5em" viewBox="0 0 18 18" fill="none" xmlns="http://www.w3.org/2000/svg" id="tick">
    <path d="M9.00001 17.3333C4.39763 17.3333 0.666672 13.6023 0.666672 8.99996C0.666672 4.39759 4.39763 0.666626 9.00001 0.666626C13.6024 0.666626 17.3333 4.39759 17.3333 8.99996C17.3283 13.6002 13.6003 17.3282 9.00001 17.3333ZM8.98667 15.6666H9.00001C12.6806 15.6629 15.6618 12.6772 15.66 8.99663C15.6582 5.31603 12.6739 2.3333 8.99334 2.3333C5.31274 2.3333 2.32851 5.31603 2.32667 8.99663C2.32483 12.6772 5.30608 15.6629 8.98667 15.6666ZM7.33334 13.1666L4.00001 9.83329L5.17501 8.65829L7.33334 10.8083L12.825 5.31663L14 6.49996L7.33334 13.1666Z" fill="#4AD23E" />
</svg>
