<svg width="1em" height="0.857em" viewBox="0 0 14 12" fill="none" xmlns="http://www.w3.org/2000/svg">
  <path d="M4.99992 0C3.15897 0 1.66659 1.49238 1.66659 3.33333C1.66659 5.17428 3.15897 6.66667 4.99992 6.66667C6.84087 6.66667 8.33325 5.17428 8.33325 3.33333C8.33325 1.49238 6.84087 0 4.99992 0ZM2.99992 3.33333C2.99992 2.22876 3.89535 1.33333 4.99992 1.33333C6.10449 1.33333 6.99992 2.22876 6.99992 3.33333C6.99992 4.4379 6.10449 5.33333 4.99992 5.33333C3.89535 5.33333 2.99992 4.4379 2.99992 3.33333Z" fill="currentColor"/>
  <path d="M10.2722 3.47885C10.0846 3.38323 9.87711 3.33337 9.66659 3.33337V2.00004C10.0876 2.00004 10.5027 2.09971 10.8778 2.29097C10.9192 2.31203 10.9599 2.33414 10.9999 2.35727C11.3235 2.54409 11.6047 2.79713 11.8248 3.10037C12.0721 3.44115 12.2352 3.83565 12.3007 4.25158C12.3663 4.66751 12.3324 5.09305 12.2019 5.49337C12.0713 5.89369 11.8479 6.25741 11.5497 6.55475C11.2516 6.8521 10.8873 7.07462 10.4866 7.20411C10.1301 7.31933 9.75381 7.35797 9.38229 7.31814C9.3363 7.3132 9.29039 7.30707 9.2446 7.29973C8.82912 7.23315 8.43531 7.06919 8.09534 6.82126L8.09464 6.82076L8.88061 5.74371C9.05067 5.86781 9.24772 5.94985 9.4556 5.98316C9.66347 6.01648 9.87628 6.00009 10.0766 5.93535C10.2769 5.87061 10.4591 5.75935 10.6081 5.61068C10.7572 5.46201 10.8689 5.28016 10.9342 5.08001C10.9995 4.87985 11.0164 4.66709 10.9836 4.45913C10.9509 4.25117 10.8693 4.05393 10.7457 3.88354C10.622 3.71316 10.4598 3.57448 10.2722 3.47885Z" fill="currentColor"/>
  <path d="M12.332 12C12.332 11.65 12.263 11.3034 12.1291 10.98C11.9951 10.6566 11.7988 10.3628 11.5513 10.1153C11.3038 9.86777 11.01 9.67144 10.6866 9.53749C10.3632 9.40354 10.0166 9.3346 9.66659 9.3346V8C10.1213 8 10.5722 8.07753 10.9999 8.22876C11.0663 8.25223 11.1321 8.27748 11.1973 8.30448C11.6826 8.5055 12.1236 8.80014 12.495 9.17157C12.8664 9.54301 13.1611 9.98396 13.3621 10.4693C13.3891 10.5345 13.4144 10.6003 13.4378 10.6667C13.5891 11.0944 13.6666 11.5453 13.6666 12H12.332Z" fill="currentColor"/>
  <path d="M9.66659 12H8.33325C8.33325 10.1591 6.84087 8.66667 4.99992 8.66667C3.15897 8.66667 1.66659 10.1591 1.66659 12H0.333252C0.333252 9.42267 2.42259 7.33333 4.99992 7.33333C7.57725 7.33333 9.66659 9.42267 9.66659 12Z" fill="currentColor"/>
</svg>