<svg width="1em" height="0.857em" viewBox="0 0 14 12" fill="none" xmlns="http://www.w3.org/2000/svg">
  <path d="M10.9999 11.3334H0.999919C0.822979 11.3352 0.65282 11.2654 0.528138 11.1398C0.403456 11.0142 0.334849 10.8436 0.337919 10.6667H0.333252V1.33333C0.333252 0.596954 0.930206 0 1.66659 0H5.66659C5.81549 0.000141993 5.96006 0.0501319 6.07725 0.142L7.59992 1.33333H10.9999C11.7363 1.33333 12.3333 1.93029 12.3333 2.66667V5.33333H12.9999C13.224 5.33336 13.4331 5.44597 13.5564 5.63306C13.6798 5.82015 13.7009 6.0567 13.6126 6.26267L11.6126 10.9293C11.5075 11.1744 11.2666 11.3334 10.9999 11.3334ZM3.43992 6.66667L2.01125 10H10.5606L11.9893 6.66667H3.43992ZM1.66659 2.66667V7.42L2.38725 5.73733C2.49231 5.49226 2.73328 5.33336 2.99992 5.33333H10.9999V2.66667H1.66659Z" fill="currentColor"/>
</svg>