<svg width="108" height="34" viewBox="0 0 108 34" fill="none" xmlns="http://www.w3.org/2000/svg">
<path d="M32.3379 6.48535H34.5547C34.9974 6.48535 35.388 6.38932 35.7266 6.19727C36.0651 6.00521 36.3304 5.73828 36.5225 5.39648C36.7178 5.05469 36.8154 4.66081 36.8154 4.21484V4.20508C36.8154 3.75911 36.7178 3.36686 36.5225 3.02832C36.3304 2.68978 36.0651 2.42611 35.7266 2.2373C35.388 2.0485 34.9974 1.9541 34.5547 1.9541H32.3379V2.73535H34.3301C34.8346 2.73535 35.2253 2.86556 35.502 3.12598C35.7786 3.38639 35.917 3.74935 35.917 4.21484V4.22461C35.917 4.68685 35.7786 5.0498 35.502 5.31348C35.2253 5.57389 34.8346 5.7041 34.3301 5.7041H32.3379V6.48535ZM31.8984 9H32.7773V1.9541H31.8984V9ZM38.1484 9H38.998V5.73828C38.998 5.48112 39.0566 5.25651 39.1738 5.06445C39.2943 4.8724 39.4587 4.72266 39.667 4.61523C39.8753 4.50781 40.1146 4.4541 40.3848 4.4541C40.4792 4.4541 40.5671 4.45898 40.6484 4.46875C40.7331 4.47526 40.8193 4.48665 40.9072 4.50293V3.67773C40.8649 3.67122 40.8031 3.66471 40.7217 3.6582C40.6436 3.64844 40.5638 3.64355 40.4824 3.64355C40.1276 3.64355 39.8298 3.72005 39.5889 3.87305C39.348 4.02604 39.1771 4.24089 39.0762 4.51758H38.998V3.73633H38.1484V9ZM43.9736 9.09277C44.4749 9.09277 44.9062 8.98372 45.2676 8.76562C45.6289 8.54427 45.9072 8.23014 46.1025 7.82324C46.3011 7.41634 46.4004 6.93294 46.4004 6.37305V6.36328C46.4004 5.80013 46.3011 5.3151 46.1025 4.9082C45.9072 4.5013 45.6289 4.1888 45.2676 3.9707C44.9062 3.7526 44.4749 3.64355 43.9736 3.64355C43.4756 3.64355 43.0443 3.7526 42.6797 3.9707C42.3184 4.1888 42.0384 4.5013 41.8398 4.9082C41.6445 5.3151 41.5469 5.80013 41.5469 6.36328V6.37305C41.5469 6.93294 41.6445 7.41634 41.8398 7.82324C42.0384 8.23014 42.3184 8.54427 42.6797 8.76562C43.0443 8.98372 43.4756 9.09277 43.9736 9.09277ZM43.9736 8.34082C43.6416 8.34082 43.36 8.2627 43.1289 8.10645C42.8978 7.9502 42.7204 7.72559 42.5967 7.43262C42.4762 7.13965 42.416 6.78646 42.416 6.37305V6.36328C42.416 5.94661 42.4762 5.5918 42.5967 5.29883C42.7204 5.00586 42.8978 4.78288 43.1289 4.62988C43.36 4.47363 43.6416 4.39551 43.9736 4.39551C44.3057 4.39551 44.5872 4.47363 44.8184 4.62988C45.0495 4.78288 45.2253 5.00586 45.3457 5.29883C45.4694 5.5918 45.5312 5.94661 45.5312 6.36328V6.37305C45.5312 6.78646 45.4694 7.13965 45.3457 7.43262C45.2253 7.72559 45.0495 7.9502 44.8184 8.10645C44.5872 8.2627 44.3057 8.34082 43.9736 8.34082ZM49.0127 9H49.8721L51.8203 3.73633H50.9219L49.4814 8.07227H49.4033L47.9629 3.73633H47.0645L49.0127 9ZM52.9629 9H53.8125V3.73633H52.9629V9ZM53.3926 2.7207C53.5553 2.7207 53.6937 2.66374 53.8076 2.5498C53.9215 2.43262 53.9785 2.29427 53.9785 2.13477C53.9785 1.97201 53.9215 1.83366 53.8076 1.71973C53.6937 1.60579 53.5553 1.54883 53.3926 1.54883C53.2331 1.54883 53.0947 1.60579 52.9775 1.71973C52.8636 1.83366 52.8066 1.97201 52.8066 2.13477C52.8066 2.29427 52.8636 2.43262 52.9775 2.5498C53.0947 2.66374 53.2331 2.7207 53.3926 2.7207ZM57.3574 9.09277C57.7253 9.09277 58.0508 9.01139 58.334 8.84863C58.6172 8.68262 58.8385 8.45312 58.998 8.16016H59.0762V9H59.9258V1.64648H59.0762V4.56641H58.998C58.8548 4.28646 58.6351 4.06348 58.3389 3.89746C58.0459 3.72819 57.7188 3.64355 57.3574 3.64355C56.9115 3.64355 56.5225 3.75586 56.1904 3.98047C55.8617 4.20508 55.6061 4.52083 55.4238 4.92773C55.2415 5.33464 55.1504 5.81315 55.1504 6.36328V6.37305C55.1504 6.91992 55.2415 7.39844 55.4238 7.80859C55.6061 8.21549 55.8633 8.53125 56.1953 8.75586C56.5273 8.98047 56.9147 9.09277 57.3574 9.09277ZM57.5527 8.34082C57.2337 8.34082 56.9587 8.2627 56.7275 8.10645C56.4997 7.94694 56.3239 7.7207 56.2002 7.42773C56.0798 7.13151 56.0195 6.77995 56.0195 6.37305V6.36328C56.0195 5.95312 56.0798 5.60156 56.2002 5.30859C56.3239 5.01562 56.4997 4.79102 56.7275 4.63477C56.9587 4.47526 57.2337 4.39551 57.5527 4.39551C57.8717 4.39551 58.1468 4.47526 58.3779 4.63477C58.609 4.79427 58.7865 5.02051 58.9102 5.31348C59.0339 5.60645 59.0957 5.95638 59.0957 6.36328V6.37305C59.0957 6.77669 59.0339 7.12663 58.9102 7.42285C58.7865 7.71582 58.609 7.94206 58.3779 8.10156C58.1468 8.26107 57.8717 8.34082 57.5527 8.34082ZM63.7051 9.09277C64.0143 9.09277 64.2926 9.05371 64.54 8.97559C64.7907 8.89421 65.0072 8.78678 65.1895 8.65332C65.3717 8.5166 65.5199 8.36523 65.6338 8.19922C65.751 8.02995 65.8324 7.85579 65.8779 7.67676L65.8877 7.6377H65.0381L65.0186 7.68164C64.973 7.78581 64.8932 7.88835 64.7793 7.98926C64.6654 8.09017 64.5205 8.17318 64.3447 8.23828C64.1689 8.30339 63.9622 8.33594 63.7246 8.33594C63.4056 8.33594 63.1289 8.26595 62.8945 8.12598C62.6602 7.98275 62.4795 7.7793 62.3525 7.51562C62.2256 7.2487 62.1621 6.92806 62.1621 6.55371V6.2168C62.1621 5.82292 62.2272 5.49089 62.3574 5.2207C62.4876 4.95052 62.6634 4.74707 62.8848 4.61035C63.1094 4.47038 63.3633 4.40039 63.6465 4.40039C63.9297 4.40039 64.1803 4.46712 64.3984 4.60059C64.6165 4.73079 64.7874 4.92936 64.9111 5.19629C65.0348 5.46322 65.0967 5.80339 65.0967 6.2168V6.55371L65.5166 5.93359H61.7324V6.6123H65.9512V6.28027C65.9512 5.75618 65.8584 5.2972 65.6729 4.90332C65.4906 4.50618 65.2269 4.19694 64.8818 3.97559C64.54 3.75423 64.1299 3.64355 63.6514 3.64355C63.1761 3.64355 62.7611 3.75911 62.4062 3.99023C62.0514 4.22135 61.7764 4.54199 61.5811 4.95215C61.389 5.3623 61.293 5.83919 61.293 6.38281V6.3877C61.293 6.93783 61.389 7.41634 61.5811 7.82324C61.7764 8.22689 62.0531 8.53939 62.4111 8.76074C62.7725 8.9821 63.2038 9.09277 63.7051 9.09277ZM69.2129 9.09277C69.5807 9.09277 69.9062 9.01139 70.1895 8.84863C70.4727 8.68262 70.694 8.45312 70.8535 8.16016H70.9316V9H71.7812V1.64648H70.9316V4.56641H70.8535C70.7103 4.28646 70.4906 4.06348 70.1943 3.89746C69.9014 3.72819 69.5742 3.64355 69.2129 3.64355C68.7669 3.64355 68.3779 3.75586 68.0459 3.98047C67.7171 4.20508 67.4616 4.52083 67.2793 4.92773C67.097 5.33464 67.0059 5.81315 67.0059 6.36328V6.37305C67.0059 6.91992 67.097 7.39844 67.2793 7.80859C67.4616 8.21549 67.7188 8.53125 68.0508 8.75586C68.3828 8.98047 68.7702 9.09277 69.2129 9.09277ZM69.4082 8.34082C69.0892 8.34082 68.8141 8.2627 68.583 8.10645C68.3551 7.94694 68.1794 7.7207 68.0557 7.42773C67.9352 7.13151 67.875 6.77995 67.875 6.37305V6.36328C67.875 5.95312 67.9352 5.60156 68.0557 5.30859C68.1794 5.01562 68.3551 4.79102 68.583 4.63477C68.8141 4.47526 69.0892 4.39551 69.4082 4.39551C69.7272 4.39551 70.0023 4.47526 70.2334 4.63477C70.4645 4.79427 70.6419 5.02051 70.7656 5.31348C70.8893 5.60645 70.9512 5.95638 70.9512 6.36328V6.37305C70.9512 6.77669 70.8893 7.12663 70.7656 7.42285C70.6419 7.71582 70.4645 7.94206 70.2334 8.10156C70.0023 8.26107 69.7272 8.34082 69.4082 8.34082ZM78.8418 9.09277C79.2878 9.09277 79.6751 8.98047 80.0039 8.75586C80.3359 8.53125 80.5931 8.21549 80.7754 7.80859C80.9577 7.39844 81.0488 6.91992 81.0488 6.37305V6.36328C81.0488 5.81315 80.9577 5.33464 80.7754 4.92773C80.5931 4.52083 80.3359 4.20508 80.0039 3.98047C79.6751 3.75586 79.2878 3.64355 78.8418 3.64355C78.4805 3.64355 78.1517 3.72819 77.8555 3.89746C77.5625 4.06348 77.3444 4.28646 77.2012 4.56641H77.123V1.64648H76.2734V9H77.123V8.16016H77.2012C77.3639 8.45312 77.5869 8.68262 77.8701 8.84863C78.1533 9.01139 78.4772 9.09277 78.8418 9.09277ZM78.6465 8.34082C78.3275 8.34082 78.0524 8.26107 77.8213 8.10156C77.5902 7.94206 77.4128 7.71582 77.2891 7.42285C77.1654 7.12663 77.1035 6.77669 77.1035 6.37305V6.36328C77.1035 5.95638 77.1654 5.60645 77.2891 5.31348C77.4128 5.02051 77.5902 4.79427 77.8213 4.63477C78.0524 4.47526 78.3275 4.39551 78.6465 4.39551C78.9688 4.39551 79.2438 4.47526 79.4717 4.63477C79.6995 4.79102 79.8737 5.01562 79.9941 5.30859C80.1178 5.60156 80.1797 5.95312 80.1797 6.36328V6.37305C80.1797 6.77995 80.1178 7.13151 79.9941 7.42773C79.8737 7.7207 79.6995 7.94694 79.4717 8.10645C79.2438 8.2627 78.9688 8.34082 78.6465 8.34082ZM82.6211 10.8457C82.9336 10.8457 83.1956 10.8001 83.4072 10.709C83.6221 10.6211 83.8076 10.4665 83.9639 10.2451C84.1234 10.0238 84.2764 9.71615 84.4229 9.32227L86.4785 3.73633H85.585L83.9688 8.59961L84.3057 8.06738H83.9053L84.2422 8.59961L82.6211 3.73633H81.7129L83.6611 9.00488L83.5635 9.31738C83.4691 9.62012 83.3438 9.83333 83.1875 9.95703C83.0345 10.0807 82.8376 10.1426 82.5967 10.1426C82.5381 10.1426 82.4779 10.141 82.416 10.1377C82.3542 10.1344 82.2972 10.1279 82.2451 10.1182V10.8164C82.3037 10.8262 82.3672 10.8327 82.4355 10.8359C82.5039 10.8424 82.5658 10.8457 82.6211 10.8457Z" fill="#18A9E1"/>
<g clip-path="url(#clip0_333_14139)">
<path d="M38.0987 29.5C36.7217 29.5 35.4562 29.18 34.3018 28.5403C33.1613 27.9005 32.2502 27.0104 31.5688 25.87C30.9011 24.7156 30.5674 23.4221 30.5674 21.9896C30.5674 20.557 30.9011 19.2705 31.5688 18.13C32.2502 16.9896 33.1613 16.0995 34.3018 15.4597C35.4562 14.8199 36.7217 14.5 38.0987 14.5C39.4756 14.5 40.7344 14.8199 41.8748 15.4597C43.0292 16.0995 43.9331 16.9896 44.5868 18.13C45.2545 19.2705 45.5882 20.557 45.5882 21.9896C45.5882 23.4221 45.2545 24.7156 44.5868 25.87C43.9193 27.0104 43.0153 27.9005 41.8748 28.5403C40.7344 29.18 39.4756 29.5 38.0987 29.5ZM38.0987 26.2455C39.2669 26.2455 40.1989 25.8561 40.8943 25.0773C41.6036 24.2983 41.9582 23.2691 41.9582 21.9896C41.9582 20.6961 41.6036 19.6669 40.8943 18.9019C40.1989 18.1231 39.2669 17.7337 38.0987 17.7337C36.9164 17.7337 35.9707 18.1161 35.2615 18.8811C34.5661 19.646 34.2184 20.6822 34.2184 21.9896C34.2184 23.283 34.5661 24.3192 35.2615 25.0981C35.9707 25.863 36.9164 26.2455 38.0987 26.2455Z" fill="#252E38"/>
<path d="M60.6747 29.3543H57.1072L51.1407 20.3209V29.3543H47.5732V14.709H51.1407L57.1072 23.7841V14.709H60.6747V29.3543Z" fill="#252E38"/>
<path d="M66.8282 17.5671V20.5296H71.6057V23.2834H66.8282V26.4962H72.2315V29.3543H63.2607V14.709H72.2315V17.5671H66.8282Z" fill="#252E38"/>
<path d="M82.7044 29.3542L76.3832 22.6157V29.3542H74.9229V14.7715H76.3832V21.5935L82.7044 14.7715H84.5612L77.7393 22.0524L84.6238 29.3542H82.7044Z" fill="#252E38"/>
<path d="M88.2407 15.96V21.4051H93.7692V22.6151H88.2407V28.1437H94.395V29.3536H86.7803V14.75H94.395V15.96H88.2407Z" fill="#252E38"/>
<path d="M106.911 14.7715L102.238 23.6797V29.3542H100.777V23.6797L96.0625 14.7715H97.7107L101.508 22.3445L105.284 14.7715H106.911Z" fill="#252E38"/>
<path fill-rule="evenodd" clip-rule="evenodd" d="M5.239 30.6072C4.98994 30.8997 4.5493 30.9363 4.27168 30.6707C2.4907 28.9668 1.27324 26.7511 0.794163 24.3218C0.270111 21.6646 0.66042 18.9081 1.90162 16.5008C3.14281 14.0935 5.1619 12.1768 7.63053 11.0626C10.0992 9.9483 12.8722 9.70192 15.4985 10.3635C18.125 11.0251 20.4503 12.5557 22.0966 14.7065C23.7427 16.8573 24.613 19.5017 24.5656 22.2098C24.5182 24.9178 23.5561 27.5302 21.8357 29.6221C20.662 31.0495 19.1822 32.1772 17.5195 32.9306C16.9097 33.2068 16.2446 32.7643 16.1911 32.0971L16.1584 31.691C16.1221 31.2374 16.3889 30.8183 16.7975 30.6178C18.0187 30.0184 19.1068 29.1622 19.9822 28.0976C21.3584 26.4241 22.1281 24.3343 22.1659 22.1678C22.2038 20.0014 21.5077 17.8858 20.1907 16.1652C18.8738 14.4446 17.0135 13.2201 14.9123 12.6908C12.8112 12.1615 10.5928 12.3586 8.6179 13.2501C6.64299 14.1415 5.02773 15.6748 4.03477 17.6006C3.04182 19.5265 2.72956 21.7316 3.14881 23.8575C3.52305 25.7551 4.46053 27.49 5.83099 28.8397C6.10471 29.1093 6.14199 29.5466 5.89293 29.8391L5.239 30.6072ZM19.3376 22.0004C19.3376 25.3461 16.9151 28.126 13.7284 28.6818V33.3918H13.6228C13.4855 33.7382 13.163 33.9919 12.7631 33.999C11.1505 34.027 9.54853 33.7295 8.05345 33.1248C7.52361 32.9104 7.32211 32.2826 7.58133 31.7733L7.73107 31.4791C7.99029 30.9697 8.61195 30.7726 9.14628 30.9754C9.86056 31.2467 10.6034 31.4313 11.3589 31.5261V28.6778C8.18337 28.1128 5.77233 25.3383 5.77233 22.0004C5.77233 18.2544 8.809 15.2177 12.5549 15.2177C16.3009 15.2177 19.3376 18.2544 19.3376 22.0004ZM16.9474 22.0004C16.9474 19.5745 14.9808 17.608 12.5549 17.608C10.1291 17.608 8.16255 19.5745 8.16255 22.0004C8.16255 24.4262 10.1291 26.3927 12.5549 26.3927C14.9808 26.3927 16.9474 24.4262 16.9474 22.0004Z" fill="url(#paint0_linear_333_14139)"/>
</g>
<defs>
<linearGradient id="paint0_linear_333_14139" x1="2.18277" y1="11.9673" x2="18.275" y2="35.1493" gradientUnits="userSpaceOnUse">
<stop stop-color="#09F7FF"/>
<stop offset="1" stop-color="#0F9AFD"/>
</linearGradient>
<clipPath id="clip0_333_14139">
<rect width="108" height="24" fill="white" transform="translate(0 10)"/>
</clipPath>
</defs>
</svg>
