<svg width="17" height="16" viewBox="0 0 17 16" fill="none" xmlns="http://www.w3.org/2000/svg">
<path fill-rule="evenodd" clip-rule="evenodd" d="M3.55387 13.7381C3.38782 13.9331 3.09406 13.9575 2.90899 13.7805C1.72167 12.6445 0.910023 11.1674 0.590639 9.54789C0.241272 7.77637 0.501477 5.93876 1.32894 4.33387C2.15641 2.72899 3.50246 1.45123 5.14822 0.708384C6.79398 -0.0344669 8.64264 -0.198718 10.3936 0.242339C12.1445 0.683396 13.6948 1.70382 14.7922 3.13767C15.8897 4.57153 16.4698 6.33448 16.4382 8.13985C16.4067 9.94521 15.7653 11.6868 14.6184 13.0814C13.7683 14.1151 12.6776 14.913 11.4512 15.4114C11.1866 15.519 10.9033 15.3302 10.8804 15.0455L10.8188 14.2775C10.8032 14.0839 10.9167 13.9043 11.0934 13.8238C11.975 13.422 12.7596 12.8227 13.3826 12.0651C14.3001 10.9494 14.8132 9.55617 14.8385 8.11188C14.8637 6.66758 14.3996 5.25722 13.5217 4.11014C12.6437 2.96305 11.4035 2.14672 10.0028 1.79387C8.602 1.44103 7.12307 1.57243 5.80647 2.16671C4.48986 2.76099 3.41302 3.78319 2.75104 5.0671C2.08907 6.351 1.88091 7.82109 2.1604 9.23831C2.4099 10.5034 3.03488 11.66 3.94852 12.5598C4.13101 12.7395 4.15586 13.0311 3.98981 13.2261L3.55387 13.7381ZM12.9529 8.0003C12.9529 10.2308 11.3378 12.0841 9.21334 12.4546L9.21334 15.5231C9.23571 15.7637 9.06024 15.9792 8.81831 15.9909C7.577 16.0511 6.33857 15.8213 5.20156 15.3196C4.97844 15.2212 4.89234 14.9541 5.00294 14.7368L5.32805 14.0978C5.43865 13.8805 5.704 13.7955 5.92845 13.8908C6.47435 14.1228 7.04834 14.277 7.63363 14.3505L7.63363 12.4519C5.5167 12.0752 3.9094 10.2255 3.9094 8.0003C3.9094 5.50301 5.93385 3.47856 8.43114 3.47856C10.9284 3.47856 12.9529 5.50301 12.9529 8.0003ZM11.3594 8.0003C11.3594 6.38307 10.0484 5.07204 8.43114 5.07204C6.81391 5.07204 5.50288 6.38307 5.50288 8.0003C5.50288 9.61753 6.81391 10.9286 8.43114 10.9286C10.0484 10.9286 11.3594 9.61753 11.3594 8.0003Z" fill="url(#paint0_linear_486_16675)"/>
<defs>
<linearGradient id="paint0_linear_486_16675" x1="1.51638" y1="1.3115" x2="12.2444" y2="16.7662" gradientUnits="userSpaceOnUse">
<stop stop-color="#09F7FF"/>
<stop offset="1" stop-color="#0F9AFD"/>
</linearGradient>
</defs>
</svg>
